<?xml version="1.0" encoding="utf-8"?>
<!-- Generator: Adobe Illustrator 24.0.2, SVG Export Plug-In . SVG Version: 6.00 Build 0)  -->
<svg version="1.1" id="Ebene_1" xmlns="http://www.w3.org/2000/svg" xmlns:xlink="http://www.w3.org/1999/xlink" x="0px" y="0px"
	 viewBox="0 0 200 60" style="enable-background:new 0 0 200 60;" xml:space="preserve">
<style type="text/css">
	.st0{fill:#422666;}
	.st1{fill:#189CD9;}
	.st2{fill:#78B42A;}
	.st3{fill:#FCC308;}
	.st4{fill:#C71E1B;}
	.st5{fill:#AA1266;}
	.st6{fill:#05252C;}
	.st7{fill:#2B7531;}
</style>
<g>
	<g>
		<path class="st0" d="M11,35.7c-2.9,0-6.1-0.2-7.5-0.2h-3.7v-2.8c1.1-0.3,2.4-0.5,3.7-0.5V10.5C2.3,10.4,1,10.2-0.1,10V7.2h3.5
			c2.3,0,5.6-0.1,8.9-0.1c8.9,0,14.4,4.1,14.4,13.9C26.8,30.7,20.3,35.7,11,35.7z M12,10.9c-1.4,0-2.9,0-3.9,0.1v20.7
			c0.9,0.1,2.3,0.2,3.4,0.2c6.1,0,10.4-3.2,10.4-10.5C21.9,14.6,18.9,10.9,12,10.9z"/>
		<path class="st1" d="M30.6,29.9v-2.8c1.1-0.3,2.4-0.5,3.7-0.5V12.5c-1-0.2-2.4-0.3-3.7-0.4V9.3C33,9.1,36,8.9,38.7,9v17.6
			c1.2,0.1,2.5,0.3,3.5,0.5v2.8L30.6,29.9L30.6,29.9z"/>
		<path class="st2" d="M68.8,29.9v-2.8c1.1-0.3,2.4-0.5,3.7-0.5V12.5c-1-0.2-2.4-0.3-3.7-0.4V9.3c2.3-0.3,5.4-0.4,8.1-0.3v17.6
			c1.2,0.1,2.5,0.3,3.5,0.5v2.8L68.8,29.9L68.8,29.9z"/>
		<path class="st3" d="M93.8,36c-4.5,0-5.8-1.7-5.8-6.4V18.2h-4v-3.5h4V8l4.5-1.2v7.9h5.5v3.5h-5.5v10c0,3.1,0.6,3.9,2.7,3.9
			c0.9,0,1.8-0.1,2.6-0.3l0.4,3.6C96.9,35.7,95.2,36,93.8,36z"/>
		<path class="st4" d="M114.7,31.9c0-1.4,0-2.7,0.2-3.9l0,0c-1,2.5-3.7,4.3-6.9,4.3c-3.6,0-5.9-2.2-5.9-5.6c0-4.7,4.8-7.2,12.3-7.3
			V18c0-2.6-1-4.1-4.1-4.1c-1.1,0-2.5,0.3-3.5,0.6c-0.1,0.9-0.3,2-0.5,3.1h-2.8v-5.9c2.1-0.7,4.7-1.1,7.2-1.1c6.4,0,8.2,2.8,8.2,7.1
			v10.8c1,0.2,2.3,0.3,3.5,0.4v2.8C120.2,31.8,117.2,32,114.7,31.9z M114.4,22.4c-5.8,0-8,1.4-8,3.6c0,1.6,1.1,2.8,2.9,2.8
			c3.1,0,5.1-2.9,5.1-5.9V22.4z"/>
		<path class="st5" d="M125.6,41.1v-2.8c1-0.3,2.3-0.5,3.5-0.5V6.5c-1-0.2-2.4-0.3-3.6-0.4V3.3c2.4-0.3,5.3-0.4,8.1-0.3v34.8
			c1.2,0.1,2.4,0.3,3.4,0.5v2.8H125.6z"/>
		<path class="st6" d="M150.1,36c-4.5,0-5.8-1.7-5.8-6.4V18.2h-4v-3.5h4V8l4.5-1.2v7.9h5.5v3.5h-5.5v10c0,3.1,0.6,3.9,2.7,3.9
			c0.9,0,1.8-0.1,2.6-0.3l0.4,3.6C153.2,35.7,151.5,36,150.1,36z"/>
		<path class="st6" d="M172,31.9c0-1.4,0-2.7,0.2-3.9l0,0c-1,2.5-3.7,4.3-6.9,4.3c-3.6,0-5.9-2.2-5.9-5.6c0-4.7,4.8-7.2,12.3-7.3V18
			c0-2.6-1-4.1-4.1-4.1c-1.1,0-2.5,0.3-3.5,0.6c-0.1,0.9-0.3,2-0.5,3.1h-2.8v-5.9c2.1-0.7,4.7-1.1,7.1-1.1c6.4,0,8.2,2.8,8.2,7.1
			v10.8c1,0.2,2.4,0.3,3.5,0.4v2.8C177.5,31.8,174.4,32,172,31.9z M171.6,22.4c-5.8,0-8,1.4-8,3.6c0,1.6,1.1,2.8,2.9,2.8
			c3.1,0,5.1-2.9,5.1-5.9L171.6,22.4L171.6,22.4z"/>
		<path class="st7" d="M63.7,22c0,4.9-3,7.7-8.7,7.7c-5.9,0-9.2-3.5-9.2-8.2c0-4.9,3-7.7,8.7-7.7C60.4,13.8,63.7,17.3,63.7,22z
			 M49,21.7c0,2.1,1.8,3.7,5.7,3.7c4.3,0,5.9-1.4,5.9-3.6c0-2-1.6-3.7-5.8-3.7C50.6,18.1,49,19.6,49,21.7z"/>
		<path class="st7" d="M63.7,39.6c-0.1,4.9-3.2,7.6-8.9,7.5c-5.9-0.2-9.1-3.7-9-8.5c0.1-4.9,3.2-7.6,8.9-7.5
			C60.6,31.3,63.8,34.9,63.7,39.6z M49,38.9c-0.1,2.1,1.7,3.8,5.6,3.8c4.3,0.1,5.9-1.3,6-3.5c0-2-1.5-3.7-5.7-3.8
			C50.7,35.4,49,36.8,49,38.9z"/>
		<path class="st6" d="M199.9,22c0,4.9-3,7.7-8.7,7.7c-5.9,0-9.2-3.5-9.2-8.2c0-4.9,3-7.7,8.7-7.7C196.6,13.8,199.9,17.3,199.9,22z
			 M185.1,21.7c0,2.1,1.8,3.7,5.7,3.7c4.3,0,5.9-1.4,5.9-3.6c0-2-1.6-3.7-5.8-3.7C186.8,18.1,185.1,19.6,185.1,21.7z"/>
		<path class="st6" d="M199.9,39.4c0,4.9-3,7.7-8.7,7.7c-5.9,0-9.2-3.5-9.2-8.2c0-4.9,3-7.7,8.7-7.7
			C196.6,31.2,199.9,34.7,199.9,39.4z M185.1,39.1c0,2.1,1.8,3.7,5.7,3.7c4.3,0,5.9-1.4,5.9-3.6c0-2-1.6-3.7-5.8-3.7
			C186.8,35.5,185.1,37,185.1,39.1z"/>
		<g>
			<path class="st5" d="M146.3,53v-1.5l1.7-2.6c1.5-2.2,1.9-3.4,1.9-4.7c0-1-0.4-1.9-1.4-1.9c-0.6,0-1.1,0.2-1.7,0.6l-0.4-1.5
				c0.8-0.4,1.6-0.7,2.5-0.7c2,0,2.9,1.4,2.9,3.2c0,1.7-0.7,3.3-2.1,5.5l-1.3,1.9v0c0.9,0,2.4-0.1,3.7-0.1V53H146.3z"/>
			<path class="st5" d="M156.9,53.1c-2.3,0-3.6-1.5-3.6-6c0-4.5,1.6-6.3,3.7-6.3c2.3,0,3.6,1.5,3.6,6
				C160.5,51.3,158.9,53.1,156.9,53.1z M156.9,42.3c-1.2,0-1.8,1.4-1.8,4.6c0,3.3,0.6,4.7,1.8,4.7c1.2,0,1.8-1.4,1.8-4.6
				C158.7,43.7,158.1,42.3,156.9,42.3z"/>
			<path class="st5" d="M161.2,53v-1.5l1.7-2.6c1.5-2.2,1.9-3.4,1.9-4.7c0-1-0.4-1.9-1.4-1.9c-0.6,0-1.1,0.2-1.7,0.6l-0.4-1.5
				c0.8-0.4,1.6-0.7,2.5-0.7c2,0,2.9,1.4,2.9,3.2c0,1.7-0.7,3.3-2.1,5.5l-1.3,1.9v0c0.9,0,2.4-0.1,3.7-0.1V53H161.2z"/>
			<path class="st5" d="M169.6,53V42.8l-1.6,0.8l-0.3-1.6l2.3-1h1.4V53H169.6z"/>
		</g>
	</g>
</g>
</svg>
